<svg width="330" height="59" viewBox="0 0 330 59" fill="none" xmlns="http://www.w3.org/2000/svg">
<path d="M144.872 38.04C153.64 38.52 159.576 38.76 162.68 38.76C163.416 38.76 163.992 38.552 164.408 38.136C164.856 37.688 165.08 37.096 165.08 36.36V32.04H154.04C150.68 32.04 148.232 31.288 146.696 29.784C145.192 28.248 144.44 25.8 144.44 22.44V21C144.44 17.64 145.192 15.208 146.696 13.704C148.232 12.168 150.68 11.4 154.04 11.4H170.888V18.12H155.96C154.04 18.12 153.08 19.08 153.08 21V21.96C153.08 23.88 154.04 24.84 155.96 24.84H164.6C167.736 24.84 170.04 25.576 171.512 27.048C172.984 28.52 173.72 30.824 173.72 33.96V36.36C173.72 39.496 172.984 41.8 171.512 43.272C170.04 44.744 167.736 45.48 164.6 45.48C162.968 45.48 161.24 45.448 159.416 45.384L155 45.192C151.736 45.032 148.36 44.808 144.872 44.52V38.04ZM207.316 45H198.676V31.32H186.676V45H178.036V11.4H186.676V24.6H198.676V11.4H207.316V45ZM239.739 45H213.099V11.4H239.739V18.12H221.739V24.6H235.899V31.32H221.739V38.28H239.739V45ZM262.288 11.4C265.904 11.4 268.64 12.344 270.496 14.232C272.384 16.088 273.328 18.824 273.328 22.44V33.96C273.328 37.576 272.384 40.328 270.496 42.216C268.64 44.072 265.904 45 262.288 45H243.568V11.4H262.288ZM264.688 22.44C264.688 19.56 263.248 18.12 260.368 18.12H252.208V38.28H260.368C263.248 38.28 264.688 36.84 264.688 33.96V22.44ZM296.834 11.4C300.45 11.4 303.186 12.344 305.042 14.232C306.93 16.088 307.874 18.824 307.874 22.44V33.96C307.874 37.576 306.93 40.328 305.042 42.216C303.186 44.072 300.45 45 296.834 45H278.114V11.4H296.834ZM299.234 22.44C299.234 19.56 297.794 18.12 294.914 18.12H286.754V38.28H294.914C297.794 38.28 299.234 36.84 299.234 33.96V22.44ZM328.501 45H311.221V38.28H315.541V18.12H311.221V11.4H328.501V18.12H324.181V38.28H328.501V45Z" fill="#2D9CDB"/>
<path fill-rule="evenodd" clip-rule="evenodd" d="M112.5 49.5001C112.5 47.5253 111.98 45.5853 110.993 43.8751C110.006 42.1649 108.585 40.7447 106.875 39.7573C105.165 38.7699 103.225 38.2501 101.25 38.2501C99.2754 38.2501 97.3354 38.7699 95.6252 39.7573C93.915 40.7447 92.4948 42.1649 91.5074 43.8751C90.52 45.5853 90.0002 47.5253 90.0002 49.5001H43.7501C43.7501 47.5253 43.2303 45.5853 42.2429 43.8751C41.2555 42.1649 39.8353 40.7447 38.1251 39.7573C36.4149 38.7699 34.4749 38.2501 32.5001 38.2501C30.5253 38.2501 28.5853 38.7699 26.8751 39.7573C25.1649 40.7447 23.7447 42.1649 22.7573 43.8751C21.7699 45.5853 21.2501 47.5253 21.2501 49.5001H5C3.67392 49.5001 2.40215 48.9733 1.46447 48.0356C0.526784 47.098 0 45.8262 0 44.5001V30.5505C0 29.8536 0.0971253 29.1602 0.288571 28.4901L5.39248 10.6264C5.69098 9.58165 6.32168 8.66257 7.18912 8.00826C8.05657 7.35394 9.11355 7 10.2001 7H123.75C124.082 7 124.4 7.1317 124.634 7.36612C124.869 7.60054 125 7.91848 125 8.25V10.75C125 11.0377 124.901 11.3165 124.719 11.5395C124.538 11.7625 124.285 11.9161 124.003 11.9742L124.003 11.9742C123.828 12.0103 123.663 12.0837 123.518 12.1892C123.374 12.2947 123.254 12.43 123.166 12.5859C123.078 12.7418 123.025 12.9146 123.01 13.0928C122.995 13.271 123.018 13.4504 123.079 13.6188L129.563 31.7767C129.853 32.5863 130 33.4395 130 34.2992V47.0001C130 47.6631 129.737 48.299 129.268 48.7679C128.799 49.2367 128.163 49.5001 127.5 49.5001H112.5H112.5ZM123.59 29.5001H108.625C108.128 29.5001 107.651 29.3026 107.299 28.9509C106.948 28.5993 106.75 28.1224 106.75 27.6251V13.875C106.75 13.3777 106.948 12.9008 107.299 12.5492C107.651 12.1975 108.128 12 108.625 12H118.679C119.066 12 119.443 12.1196 119.759 12.3423C120.075 12.5651 120.315 12.8802 120.445 13.2444L125.355 26.9945C125.456 27.2774 125.488 27.5805 125.447 27.8783C125.407 28.176 125.295 28.4596 125.122 28.7052C124.949 28.9508 124.72 29.1512 124.453 29.2896C124.186 29.4279 123.89 29.5001 123.59 29.5001V29.5001ZM101.625 29.5001H88.486C88.1958 29.5001 87.9095 29.4327 87.6498 29.3033C87.39 29.1739 87.1639 28.9859 86.9891 28.7542C86.8143 28.5225 86.6957 28.2534 86.6426 27.9681C86.5895 27.6828 86.6034 27.389 86.6831 27.11L90.6116 13.3599C90.7236 12.9681 90.9601 12.6235 91.2854 12.3781C91.6107 12.1327 92.007 12 92.4145 12H101.625C102.123 12 102.599 12.1975 102.951 12.5492C103.303 12.9008 103.5 13.3777 103.5 13.875V27.6251C103.5 28.1224 103.303 28.5993 102.951 28.9509C102.599 29.3026 102.123 29.5001 101.625 29.5001ZM81.3359 29.5001H68.7359C68.4457 29.5001 68.1594 29.4327 67.8997 29.3033C67.6399 29.1739 67.4138 28.9859 67.239 28.7542C67.0642 28.5225 66.9456 28.2534 66.8925 27.9681C66.8394 27.6828 66.8533 27.389 66.933 27.11L70.8616 13.3599C70.9736 12.9681 71.2101 12.6235 71.5354 12.3781C71.8607 12.1327 72.257 12 72.6645 12H85.2645C85.5547 12 85.841 12.0674 86.1007 12.1968C86.3605 12.3262 86.5866 12.5142 86.7614 12.7459C86.9362 12.9776 87.0548 13.2467 87.1079 13.532C87.1609 13.8173 87.1471 14.1111 87.0674 14.3901L83.1388 28.1402C83.0268 28.532 82.7903 28.8766 82.465 29.122C82.1397 29.3674 81.7434 29.5001 81.3359 29.5001ZM61.5859 29.5001H48.9859C48.6957 29.5001 48.4094 29.4327 48.1497 29.3033C47.8899 29.1739 47.6638 28.9859 47.489 28.7542C47.3142 28.5225 47.1956 28.2534 47.1425 27.9681C47.0895 27.6828 47.1033 27.389 47.183 27.11L51.1115 13.3599C51.2235 12.9681 51.46 12.6235 51.7853 12.3781C52.1106 12.1327 52.5069 12 52.9144 12H65.5144C65.8046 12 66.0909 12.0674 66.3506 12.1968C66.6104 12.3262 66.8365 12.5142 67.0113 12.7459C67.1861 12.9776 67.3047 13.2467 67.3578 13.532C67.4108 13.8173 67.397 14.1111 67.3173 14.3901L63.3888 28.1402C63.2768 28.532 63.0403 28.8766 62.715 29.122C62.3897 29.3674 61.9934 29.5001 61.5859 29.5001ZM41.8358 29.5001H29.2358C28.9456 29.5001 28.6593 29.4327 28.3996 29.3033C28.1398 29.1739 27.9137 28.9859 27.7389 28.7542C27.5641 28.5225 27.4455 28.2534 27.3924 27.9681C27.3394 27.6828 27.3532 27.389 27.4329 27.11L31.3615 13.3599C31.4735 12.9681 31.71 12.6235 32.0353 12.3781C32.3606 12.1327 32.7569 12 33.1644 12H45.7644C46.0546 12 46.3409 12.0674 46.6006 12.1968C46.8604 12.3262 47.0865 12.5142 47.2613 12.7459C47.4361 12.9776 47.5547 13.2467 47.6078 13.532C47.6609 13.8173 47.647 14.1111 47.5673 14.3901L43.6387 28.1402C43.5267 28.532 43.2902 28.8766 42.9649 29.122C42.6396 29.3674 42.2433 29.5001 41.8358 29.5001ZM22.0857 29.5001H9.4858C9.19559 29.5001 8.90933 29.4327 8.64958 29.3033C8.38983 29.1739 8.16366 28.9859 7.9889 28.7542C7.81413 28.5225 7.69553 28.2534 7.64244 27.9681C7.58935 27.6828 7.60321 27.389 7.68294 27.11L11.6114 13.3599C11.7234 12.9681 11.9599 12.6235 12.2852 12.3781C12.6105 12.1327 13.0068 12 13.4143 12H26.0143C26.3045 12 26.5908 12.0674 26.8505 12.1968C27.1103 12.3262 27.3364 12.5142 27.5112 12.7459C27.686 12.9776 27.8046 13.2467 27.8577 13.532C27.9107 13.8173 27.8969 14.1111 27.8172 14.3901L23.8886 28.1402C23.7766 28.532 23.5401 28.8766 23.2148 29.122C22.8895 29.3674 22.4932 29.5001 22.0857 29.5001ZM23.7501 49.5001C23.7501 47.9642 24.1544 46.4553 24.9224 45.1251C25.6904 43.7949 26.7949 42.6904 28.1251 41.9224C29.4553 41.1544 30.9642 40.7501 32.5001 40.7501C34.036 40.7501 35.5449 41.1544 36.8751 41.9224C38.2053 42.6904 39.3099 43.7949 40.0778 45.1251C40.8458 46.4553 41.2501 47.9642 41.2501 49.5001C41.2501 51.036 40.8458 52.5449 40.0778 53.8751C39.3099 55.2053 38.2053 56.3098 36.8751 57.0778C35.5449 57.8458 34.036 58.2501 32.5001 58.2501C30.9642 58.2501 29.4553 57.8458 28.1251 57.0778C26.7949 56.3098 25.6904 55.2053 24.9224 53.8751C24.1544 52.5449 23.7501 51.036 23.7501 49.5001V49.5001ZM92.5002 49.5001C92.5002 47.9642 92.9045 46.4553 93.6725 45.1251C94.4405 43.7949 95.545 42.6904 96.8752 41.9224C98.2054 41.1544 99.7143 40.7501 101.25 40.7501C102.786 40.7501 104.295 41.1544 105.625 41.9224C106.955 42.6904 108.06 43.7949 108.828 45.1251C109.596 46.4553 110 47.9642 110 49.5001C110 51.036 109.596 52.5449 108.828 53.8751C108.06 55.2053 106.955 56.3098 105.625 57.0778C104.295 57.8458 102.786 58.2501 101.25 58.2501C99.7143 58.2501 98.2054 57.8458 96.8752 57.0778C95.545 56.3098 94.4405 55.2053 93.6725 53.8751C92.9045 52.5449 92.5002 51.036 92.5002 49.5001V49.5001Z" fill="#2D9CDB"/>
</svg>
